<svg version="1.0" xmlns="http://www.w3.org/2000/svg"
 width="280.000000pt" height="280.000000pt" viewBox="0 0 280.000000 280.000000"
 preserveAspectRatio="xMidYMid meet">

	<g transform="translate(0.000000,280.000000) scale(0.100000,-0.100000)"
	fill="#000000" stroke="none">

		<path d="M667 1258 c-21 -123 -42 -239 -47 -259 -41 -152 39 -286 195 -327 22
-6 202 -13 405 -16 388 -6 444 -2 544 43 60 26 140 102 167 158 21 42 112 538
103 555 -3 5 -105 -34 -122 -47 -1 -1 -18 -93 -38 -205 -39 -223 -50 -259 -96
-307 -54 -56 -117 -75 -259 -81 -80 -3 -129 -1 -132 6 -4 5 11 114 33 242 28
168 37 238 29 251 -8 17 -22 19 -108 19 -80 0 -103 -3 -119 -17 -18 -15 -28
-58 -61 -250 -22 -128 -42 -237 -45 -242 -4 -6 -60 -7 -139 -4 -153 6 -204 22
-237 75 -27 42 -24 93 23 373 20 115 35 210 34 211 -5 4 -87 44 -90 44 -2 0
-20 -100 -40 -222z"/>
	</g>
</svg>
